<svg width="1000" height="663" viewBox="0 0 1000 663" fill="none" xmlns="http://www.w3.org/2000/svg">
<path fill-rule="evenodd" clip-rule="evenodd" d="M0.000865936 331.079H0L0.000427246 331.039L0 331H0.000865936C0.515957 285.313 23.3657 242.724 61.2334 217.039L223.075 111.578C239.456 101.524 255.449 90.4675 271.454 79.4025C312.156 51.2636 352.934 23.0724 400.345 11.1891C451.595 -1.65645 499.992 0.0784706 499.992 0.0784706V36.0084C499.349 36.0028 498.705 36 498.061 36C384.691 36 281.821 123.035 247 243H354.971V140.608L499.992 216.756V271.605H495.451V275.12C497.342 275.25 498.842 275.496 499.992 275.88V286.915L476.581 327.66V287.145C476.581 278.08 478.246 275.49 484.351 275.12V271.605H450.681V275.12C457.896 275.675 459.376 277.71 459.376 287.145V378.905C459.376 386.785 458.344 389.504 453.8 390.509C449.217 389.459 447.71 387.353 445.786 380.94L430.431 330.435C434.316 328.4 435.981 327.29 438.201 325.07C443.936 319.335 447.266 310.64 447.266 301.945C447.266 293.805 444.491 285.85 439.681 280.485C434.316 274.195 427.471 271.605 416.001 271.605H384.551V275.12C391.766 275.675 393.246 277.71 393.246 287.145V378.905C393.246 388.34 391.766 390.375 384.551 390.93V395H419.146V390.93C411.931 390.375 410.451 388.34 410.451 378.905V334.69C412.486 334.69 413.041 334.69 415.076 334.505L432.836 395H450.681H456.146H485.276V390.93C478.061 390.375 476.581 388.34 476.581 378.905V337.28L480.281 330.99L497.671 383.16C498.411 385.565 498.781 387.045 498.781 387.97C498.781 390.19 497.856 390.745 493.786 390.93H492.676V395H499.992V447.244L354.971 523.392V422H247.588C282.967 540.931 385.322 627 498.061 627C498.404 627 498.747 626.999 499.09 626.998C499.391 626.996 499.691 626.994 499.992 626.992V662C499.992 662 451.595 663.735 400.345 650.89C352.934 639.006 312.156 610.815 271.454 582.676C255.449 571.611 239.456 560.554 223.075 550.5L61.2334 445.039C23.3657 419.354 0.515957 376.766 0.000865936 331.079ZM500 395V447.24L545.471 423.364V521H615.471V422H751.981C715.849 540.249 612 626.012 500 626.992V662C500 662 548.397 663.735 599.647 650.89C647.058 639.006 687.836 610.815 728.538 582.676C744.543 571.611 760.536 560.554 776.917 550.5L938.759 445.039C976.626 419.354 999.477 376.766 999.992 331.079L999.992 331.059L999.991 331.039C999.991 331.026 999.992 331.013 999.992 331C999.477 285.313 976.626 242.724 938.759 217.039L776.917 111.578C760.536 101.524 744.543 90.4675 728.538 79.4026C687.836 51.2636 647.058 23.0724 599.647 11.1891C548.397 -1.65645 500 0.0784706 500 0.0784706V36.0085C612.63 36.994 717.018 123.719 752.584 243H615.471V143H545.471V240.636L500 216.76V271.605H520.981V275.12C514.691 275.49 513.211 276.6 508.401 284.37L500 298.342V331V331.079V337.966L513.951 378.905C516.018 384.982 517.525 388.025 519.732 389.555V363.735H523.987L524.357 365.955C527.317 384.64 533.792 393.89 543.597 393.89C552.292 393.89 558.397 386.305 558.397 375.945C558.397 366.325 555.067 359.665 541.192 343.2C530.277 330.065 528.427 327.475 524.912 321.37C519.917 313.23 517.882 306.2 517.882 298.615C517.882 281.41 527.872 268.83 541.747 268.83C547.667 268.83 553.402 270.31 558.952 273.27L560.987 270.68H564.872V300.65H560.802C558.952 281.965 553.217 272.715 543.597 272.715C536.012 272.715 531.202 279.56 531.202 290.475C531.202 294.175 531.942 297.875 533.052 301.205C535.272 306.94 538.232 311.01 548.037 321.925C566.352 342.09 572.272 353.19 572.272 367.62C572.272 386.305 560.987 397.775 542.857 397.775C536.567 397.775 532.312 396.48 526.022 392.965L523.062 396.85H519.732V395H500ZM499.992 298.355V331V331.079V337.943L491.381 312.675L499.992 298.355ZM500 286.901L500.816 285.48C502.296 283.26 503.036 281.04 503.036 279.56C503.036 277.765 502.108 276.59 500 275.883V286.901ZM495.775 99.5666L499.992 97.9364V103.105L495.775 99.5666ZM500 97.9333V103.112L513.088 114.094L500 129.691V150.037L523.106 122.5L540.008 136.683L551.56 78L500 97.9333ZM483.471 149.39L499.992 129.701V150.047L493.489 157.796L483.471 149.39ZM431.383 110.131L442.935 51.4486L387.15 73.0152L404.462 87.5422L374.846 122.838L384.864 131.245L414.481 95.9487L431.383 110.131ZM497.56 65L486.008 123.683L469.106 109.5L439.489 144.796L429.471 136.39L459.088 101.094L441.775 86.5666L497.56 65ZM293.57 285.85L307.63 354.855L316.325 287.515C316.51 285.85 316.51 284.555 316.51 283.26C316.51 278.08 314.105 275.49 308.555 275.12V271.605H330.385V275.12C328.35 275.12 327.24 275.49 326.13 276.97C325.39 277.895 324.835 279.005 324.28 280.3C323.91 281.595 323.54 282.89 323.355 284.37C323.227 284.883 323.099 285.751 322.909 287.036C322.825 287.605 322.729 288.257 322.615 288.995L305.225 397.405H300.23L284.505 321.185L270.445 397.405H265.635L242.325 287.145C241.06 281.363 240.678 280.522 239.799 278.59L239.735 278.45C238.44 276.045 237.145 275.12 234.555 275.12V271.605H262.12V275.12C258.975 275.12 257.68 276.97 257.68 280.3C257.68 281.78 257.865 283.445 258.235 285.665L273.59 357.815L282.285 310.27L277.29 286.405C275.44 277.525 273.775 275.305 268.595 275.12V271.605H297.825V275.12C294.495 275.12 292.83 276.785 292.83 280.3C292.83 281.78 293.015 283.26 293.57 285.85ZM323.131 333.025V328.4C323.686 307.495 327.016 292.88 333.121 282.705C338.301 274.195 346.811 268.83 355.506 268.83C375.856 268.83 387.696 292.325 387.696 332.47C387.696 372.615 375.301 397.775 355.506 397.775C335.711 397.775 323.131 372.615 323.131 333.025ZM345.886 284.925C344.406 294.73 343.666 308.235 343.666 330.805C343.666 359.85 344.591 373.17 347.366 383.9C349.031 389.635 351.806 392.78 355.506 392.78C364.016 392.78 367.161 376.5 367.161 331.73C367.161 312.86 366.791 301.945 365.866 292.14C364.386 278.08 361.796 273.27 355.506 273.27C350.326 273.27 347.366 276.97 345.886 284.925ZM410.451 281.965V330.805C417.296 330.25 418.221 330.065 421.366 328.4C427.471 325.255 430.616 316.19 430.616 301.76C430.616 284.37 425.621 275.12 416.186 275.12C411.931 275.12 410.451 276.6 410.451 281.965ZM601.802 395H567.947V390.93C575.162 390.375 576.642 388.34 576.642 378.905V287.145C576.642 277.71 575.162 275.675 567.947 275.12V271.605H601.802V275.12C595.327 275.86 593.847 277.895 593.847 287.145V325.255H614.752V287.145C614.752 277.895 613.457 275.86 606.797 275.12V271.605H640.652V275.12C633.437 275.675 632.142 277.71 632.142 287.145V378.905C632.142 388.34 633.437 390.375 640.652 390.93V395H606.797V390.93C613.457 390.19 614.752 388.155 614.752 378.905V330.805H593.847V378.905C593.847 388.155 595.327 390.19 601.802 390.93V395ZM637.523 333.025V328.4C638.078 307.495 641.408 292.88 647.513 282.705C652.693 274.195 661.203 268.83 669.898 268.83C690.248 268.83 702.088 292.325 702.088 332.47C702.088 372.615 689.693 397.775 669.898 397.775C650.103 397.775 637.523 372.615 637.523 333.025ZM660.278 284.925C658.798 294.73 658.058 308.235 658.058 330.805C658.058 359.85 658.983 373.17 661.758 383.9C663.423 389.635 666.198 392.78 669.898 392.78C678.408 392.78 681.553 376.5 681.553 331.73C681.553 312.86 681.183 301.945 680.258 292.14C678.778 278.08 676.188 273.27 669.898 273.27C664.718 273.27 661.758 276.97 660.278 284.925ZM724.843 378.905C724.843 388.71 726.323 390.56 734.648 390.93V395H698.943V390.93C706.158 390.375 707.638 388.34 707.638 378.905V287.145C707.638 277.71 706.158 275.675 698.943 275.12V271.605H730.948C752.038 271.605 763.323 283.26 763.323 304.905C763.323 328.4 751.113 339.5 724.843 339.87V378.905ZM724.843 281.965V335.8C732.243 335.8 734.833 335.06 737.978 332.655C743.158 328.585 745.563 319.705 745.563 305.09C745.563 283.815 741.308 275.12 730.763 275.12C726.323 275.12 724.843 276.6 724.843 281.965ZM961 330.5C961 381.034 922.049 422 874 422C825.951 422 787 381.034 787 330.5C787 279.966 825.951 239 874 239C922.049 239 961 279.966 961 330.5ZM126 422C174.049 422 213 381.034 213 330.5C213 279.966 174.049 239 126 239C77.9512 239 39 279.966 39 330.5C39 381.034 77.9512 422 126 422Z" fill="#070D59"/>
</svg>
